<svg width="494" height="571" viewBox="0 0 494 571" fill="none" xmlns="http://www.w3.org/2000/svg">
<path fill-rule="evenodd" clip-rule="evenodd" d="M125.871 299.421C124.311 300.929 124.235 304.025 124.009 306.025C125.006 301.236 129.669 296.788 132.538 293.052C135.328 289.415 137.871 285.573 140.033 281.521C140.081 281.433 144.784 272.355 141.158 273.361C131.093 276.108 132.46 293.577 125.871 299.421V299.421ZM141.599 225.325C143.316 229.511 152.293 249.447 158.569 245.33C163.564 242.053 158.398 229.63 155.699 226.434C151.201 221.118 146.116 216.399 141.945 210.774C141.225 215.859 139.524 220.315 141.599 225.325V225.325ZM281.546 265.623C285.978 266.124 290.429 266.602 294.887 266.777C289.813 266.196 284.831 265.496 279.717 265.442L281.546 265.623L281.546 265.623ZM34.7867 283.905C34.4947 281.411 40.4862 278.919 41.988 277.988C46.1057 275.433 50.4177 272.522 52.1904 268.161C54.1816 264.899 45.4036 264.529 43.0127 263.437C41.3364 262.672 37.2977 260.523 36.8815 258.471C35.9909 254.076 42.7322 253.627 45.7682 253.077C50.2151 252.273 52.4718 252.365 48.7375 249.488C44.7227 246.396 35.0377 244.061 35.7223 237.153C36.3063 231.269 46.3802 231.449 50.3616 231.585C57.8647 231.837 63.8908 234.542 69.8125 238.991C71.1936 240.027 79.6847 245.839 79.6771 243.352C79.0309 237.747 72.4921 235.013 71.0834 229.673C70.2831 226.638 70.865 224.172 69.6483 221.067C68.4477 218.003 65.5735 213.217 68.3242 210.052C70.0709 208.044 72.8572 208.378 74.7017 209.629C79.2854 212.308 81.7738 216.331 85.4756 219.968C88.1854 222.629 91.9693 222.912 94.0453 226.349C97.1516 231.646 100.136 237.469 103.762 242.6C104.899 244.208 110.336 251.271 111.841 247.365C112.689 245.165 106.726 239.417 105.81 238.277C103.623 235.552 101.153 233.114 100.537 229.496C100.183 227.423 101.139 225.552 100.85 223.935C99.9948 219.156 95.1005 214.443 93.6283 209.718C92.3077 205.478 89.4318 194.879 92.1436 190.9C95.856 185.451 100.283 193.424 102.684 196.468C105.342 199.84 107.558 203.119 110.747 205.822C113.561 208.21 115.462 210.519 116.958 214.055C119.724 220.587 120.911 227.398 122.774 233.995C122.763 233.974 122.753 233.952 122.744 233.93C123.898 237.743 125.867 241.942 128.849 244.73C133.85 249.404 133.1 245.259 131.322 240.481C128.642 233.276 124.842 226.491 122.136 219.314C121.172 216.757 120.339 214.019 120.841 211.242C121.177 209.379 122.727 208.227 123.119 206.913C124.488 202.348 117.211 173.013 127.253 174.018C132.675 174.56 132.779 187.013 133.674 190.526C135.102 196.137 135.317 200.767 139.691 204.795C139.798 202.486 142.034 201.436 142.264 199.46C142.536 197.11 140.695 194.501 139.865 192.427C137.585 186.727 135.665 180.793 134.883 174.709C132.5 156.143 146.945 173.551 151.365 179.645C152.212 180.814 153.312 182.29 154.293 183.606C156.87 187.053 158.064 186.85 161.142 189.11C166.379 192.955 166.91 204.298 167.34 210.318C167.475 212.175 170.343 241.639 176.026 235.782C178.892 232.829 175.652 219.64 174.508 215.737C172.748 209.737 166.473 200.462 168.84 194.125C169.584 192.135 171.38 191.693 172.155 189.937C173.971 185.838 171.421 179.21 171.433 174.922C171.459 166.196 177.44 161.525 180.836 172.302C182.179 176.567 183.324 179.17 185.473 183.136C187.924 187.661 186.521 192.614 188.09 197.147C189.388 200.893 189.932 197.671 192.811 200.817C195.2 203.431 193.993 210.046 193.528 213.264C192.882 217.733 187.753 235.624 193.894 237.34C199.491 238.904 200.9 226.865 201.08 223.446C201.533 214.895 197.858 207.564 195.143 199.734C193.82 195.918 192.128 191.369 192.078 187.276C192.036 183.688 193.804 181.452 195.063 178.34C196.528 174.716 201.98 157.716 208.493 165.38C212.869 170.53 208.45 179.451 212.122 184.862C213.82 180.555 214.137 168.246 220.885 167.919C227.399 167.604 227.085 181.058 227.471 185.646C227.707 188.461 225.749 204.097 228.466 206.565C231.304 209.14 233.506 205.054 234.977 202.895C237.495 199.205 258.719 164.816 264.193 170.632C268.439 175.141 256.208 184.226 257.28 188.096C257.673 189.519 259.227 188.874 260.389 189.662C264.648 192.553 264.867 195.166 261.469 199.283C273.522 204.35 257.13 211.489 251.779 214.051C248.134 215.796 232.372 222.964 237.281 229.563C238.932 231.782 245.233 231.639 247.67 233.001C252.37 235.629 251.882 240.558 247.093 242.813C243.8 244.366 239.444 244.388 235.897 243.927C233.861 243.664 228.537 241.443 226.771 242.662C233.056 248.755 226.238 249.113 220.276 249.701C215.817 250.141 204.259 250.779 202.694 256.583C209.532 257.748 216.628 257.053 223.514 257.732C231.053 258.478 238.464 258.812 246.311 258.809C261.191 258.801 276.745 259.445 291.485 261.115C298.695 261.931 305.989 262.293 313.234 262.676C315.847 262.813 329.832 261.207 329.525 266.443C329.109 273.523 309.983 267.095 305.845 268.243C278.903 266.303 251.843 265.916 225.019 263.314C227.161 264.476 231.213 269.71 228.617 272.104C230.553 272.887 234.379 273.22 235.503 275.19C237.987 279.551 233.521 277.813 232.42 279.293C230.541 281.825 236.296 284.03 238.309 285.256C247.693 290.964 256.211 298.907 264.385 306.233C268.87 310.253 276.925 325.666 265.836 326.58C260.302 327.038 253.749 321.003 250.064 317.641C247.738 315.521 242.646 308.292 239.183 307.885C237.942 311.78 240.865 320.941 241.364 324.76C242.423 332.835 242.258 338.792 236.568 345.165C223.05 360.307 224.441 326.733 221.619 327.35C219.634 327.784 218.179 343.221 217.896 345.171C217.271 349.494 214.24 361.517 207.675 360.385C202.167 359.435 202.789 348.17 202.505 344.35C202.266 341.147 201.019 337.667 201.142 334.085C201.242 331.138 202.473 328.306 202.627 325.443C202.788 322.466 200.85 320.313 200.987 316.951C201.139 313.177 202.295 309.013 202.808 305.21C203.665 298.855 205.194 290.185 200.615 284.681C193.367 293.818 196.55 308.33 196.04 319.083C195.784 324.461 195.754 331.068 190.799 334.193C188.808 335.448 190.25 333.403 187.906 335.41C187.38 335.86 186.997 336.803 186.629 337.384C183.998 341.552 181.945 346.02 179.428 350.246C177.868 352.869 173.533 361.966 169.659 361.799C162.634 361.496 168.348 337.764 168.951 333.155C169.409 329.67 170.488 326.013 170.776 322.577C171.042 319.424 169.687 316.896 170.924 313.551C172.525 309.219 175.516 305.332 177.588 301.225C180.374 295.701 181.81 290.204 182.663 284.115C183.017 281.594 184.174 275.777 181.451 274.519C177.075 272.501 175.628 282 174.939 284.407C172.902 291.538 172.682 299.927 168.677 307.235C164.537 314.796 167.19 323.542 164.312 331.454C163.272 334.312 162.257 335.484 159.82 337.134C157.11 338.972 155.759 339.775 153.735 343.113C151.9 346.138 143.863 361.565 139.359 355.188C137.898 353.119 139.763 349.84 140.358 347.822C141.669 343.374 142.734 338.843 144.153 334.428C145.054 331.625 146.756 328.628 146.791 325.619C146.825 322.765 145.712 320.988 146.871 318.012C148.431 314.004 152.835 310.074 153.611 305.964C154.353 302.046 153.909 297.901 155.112 293.774C156.071 290.491 163.75 274.176 161.463 272.511C156.817 269.123 150.835 290.208 150.347 291.803C147.236 301.974 145.439 313.224 141.944 323.358C140.769 326.764 138.565 328.093 136.751 330.487C134.342 333.667 133.299 338.488 131.097 341.967C129.343 344.739 124.752 351.989 122.021 346.885C120.046 343.198 123.072 335.372 123.648 331.399C124.302 326.908 124.618 322.43 125.782 318.031C126.032 317.084 126.912 315.333 126.868 314.408C126.741 311.846 123.89 310.557 123.842 307.582C123.755 310.566 122.992 312.82 120.928 314.89C120.39 315.432 118.769 315.88 118.003 316.466C115.689 318.236 113.939 321.312 112.104 323.575C109.524 326.75 94.5039 340.699 97.0029 328.186C98.0713 322.838 100.06 317.624 102.202 312.636C103.883 308.716 106.739 304.246 107.209 299.979C107.696 295.556 107.129 294.078 110.181 290.034C113.319 285.879 118.606 280.893 118.894 275.409C119.476 264.237 103.444 287.112 101.877 289.686C98.7119 294.883 94.9802 300.188 89.7447 303.468C83.9077 307.127 77.7016 308.762 72.4303 313.492C70.0809 315.602 62.9365 323.079 59.5175 319.344C56.1501 315.666 64.1622 307.325 65.9194 304.737C67.7351 302.063 70.1523 299.384 71.6748 296.588C73.0554 294.049 73.312 291.3 74.5051 288.672C77.8848 281.217 85.147 279.349 90.3293 273.76C93.0652 270.808 93.325 268.339 88.3192 269.241C85.6164 269.725 82.9184 272.175 80.4868 273.513C76.8299 275.528 73 277.277 69.2571 279.131C64.2047 281.631 36.1614 295.999 34.7867 283.905" fill="#89B99A"/>
<path fill-rule="evenodd" clip-rule="evenodd" d="M385.256 434.318C370.751 401.731 350.029 370.839 330.067 341.39C336.578 343.883 345.549 343.326 351.949 340.892C359.139 338.159 363.194 332.568 366.643 325.987C367.133 325.053 370.698 315.283 372.526 316.009C375.89 317.347 374.708 339.547 374.815 342.285C375.195 352.059 376.322 361.709 377.545 371.412C380.184 392.324 383.222 413.334 385.256 434.318ZM320.639 322.182C315.711 322.043 312.695 314.753 309.892 310.866C315.197 311.183 338.363 307.17 340.527 312.822C344.041 322.015 325.131 322.298 320.639 322.182ZM227.076 144.309C226.766 147.23 225.653 158.507 221.44 154.56C218.59 151.887 217.956 141.113 217.321 137.765C216.024 130.943 213.833 122.48 214.865 115.518C216.821 102.34 224.613 112.232 225.897 119.491C227.313 127.494 227.913 136.195 227.076 144.309ZM256.176 205.755C262.291 202.714 259.315 209.223 256.833 212.223C249.852 220.664 249.539 210.057 256.176 205.755ZM246.26 173.507C245.689 166.818 247.174 157.963 249.668 151.868C251.627 147.08 256.791 142.95 259.058 149.539C260.941 155.008 255.046 168.315 252.119 173.224C249.739 177.217 246.685 180.508 246.26 173.507ZM221.043 173.049C220.876 185.762 209.451 189.294 211.231 174.936C212.322 166.152 220.35 160.377 221.043 173.049ZM236.743 251.315C236.566 256.579 223.77 273.796 223.975 263.619C224.033 260.717 236.625 246.542 236.743 251.315ZM206.258 230.49C202.257 232.557 191.125 239.685 187.379 237.65C181.393 234.398 189.254 227.715 192.217 226.089C195.453 224.311 204.265 220.047 208.381 221.097C215.93 223.029 210.406 228.115 206.258 230.49ZM157.238 149.534C147.521 152.589 145.339 141.159 143.98 134.328C143.093 129.86 139.336 120.329 144.527 117.715C153.857 113.009 160.83 142.628 157.238 149.534ZM188.013 153.892C187.029 149.301 186.367 144.645 185.413 140.05C184.844 137.316 181.422 127.551 182.165 125.383C184.515 118.506 189.853 122.583 192.649 128.071C195.518 133.706 197.975 145.111 197.017 151.156C196.129 156.763 190.22 162.797 188.013 153.892ZM175.432 105.392C173.749 97.4086 179.682 91.4221 184.897 100.647C190.799 111.08 179.352 120.362 175.432 105.392ZM175.35 243.564C175.008 250.68 149.96 258.984 144.858 255.187C138.141 250.189 153.332 246.294 157.618 244.577C161.237 243.13 175.147 235.348 175.35 243.564ZM133.863 228.809C127.605 229.923 121.127 231.688 114.779 231.93C106.06 232.259 106.61 227.437 113.547 222.998C119.61 219.119 130.236 219.086 137.214 217.064C142.788 215.448 159.557 204.695 163.063 208.883C170.963 218.321 139.777 227.701 133.863 228.809ZM132.765 256.564C132.058 266.214 106.261 266.922 100.508 266.922C104.599 264.579 132.332 243.12 132.765 256.564ZM89.3359 203.272C72.1248 200.991 90.7141 190.128 96.7634 188.38C101.154 187.108 111.465 184.34 115.413 188.3C125.775 198.692 93.761 203.88 89.3359 203.272ZM94.7673 168.288C95.7515 162.36 125.378 156.206 126.463 161.828C127.317 166.254 94.9105 180.945 94.7673 168.288ZM135.4 179.569C147.572 172.881 162.283 181.748 144.295 189.12C140.766 190.565 131.512 194.494 128.061 191.392C123.187 187.013 132.188 181.219 135.4 179.569ZM447.325 236.894C444.992 231.61 441.613 224.215 436.466 228.474C434.466 230.126 431.837 237.589 430.323 240.34C425.018 249.966 419.327 260.737 409.572 266.572C403.733 270.064 384.128 274.697 390.099 262.87C395.191 252.78 409.547 244.818 418.401 238.008C422.506 234.85 432.138 228.488 434.599 223.562C436.475 219.805 433.795 210.268 427.153 211.706C424.139 212.359 422.917 220.865 421.609 223.192C419.54 226.866 416.26 229.582 413.308 232.514C408.628 237.165 403.476 244.15 396.683 245.888C388.515 247.981 386.535 243.121 391.288 236.438C395.935 229.908 405.334 226.335 411.375 221.195C414.381 218.636 423.784 211.211 422.117 206.777C418.484 197.122 410.813 209.964 408.287 212.479C406.307 214.445 394.21 227.208 391.121 224.237C387.408 220.667 397.684 208.779 399.614 206.213C403.684 200.798 405.183 201.272 401.053 197.757C398.695 195.746 393.565 193.715 390.726 193.837C383.759 194.134 376.103 199.783 368.854 200.766C365.853 201.174 355.881 200.032 354.229 204.402C351.683 211.13 380.093 230.661 363.892 232.869C351.369 234.569 341.736 214.479 330.909 221.284C313.798 232.042 338.298 242.035 347.742 245.547C351.976 247.124 366.243 249.035 363.393 256.519C361.074 262.604 349.34 260.053 344.84 258.833C336.314 256.525 328.88 251.551 321.082 247.631C318.978 246.576 310.657 240.936 307.918 241.703C303.996 242.808 297.965 257.108 299.821 260.803C302.11 265.354 317.159 265.331 322.185 265.938C330.681 266.96 341.15 267.683 347.881 273.704C355.313 280.35 345.322 280.285 339.874 279.509C328.119 277.83 316.48 272.463 305.135 269.057C301.178 267.866 295.382 265.122 291.319 265.278C285.165 265.517 286.402 266.064 288.409 271.27C292.883 282.89 298.413 284.693 310.644 286.769C316.223 287.712 341.12 286.905 342.313 294.594C335.805 298.753 321.414 294.706 314.297 293.902C309.09 293.311 300.519 293.679 296.234 290.71C290.401 286.659 283.86 273.057 279.843 267.461C272.717 257.534 265.712 247.664 257.759 238.355C267.212 240.663 275.89 244.588 285.838 243.147C296.714 241.569 307.59 235.478 310.284 224.217C311.269 220.097 310.996 215.74 311.11 211.546C311.143 210.206 311.343 208.844 311.314 207.501C311.189 201.663 311.855 199.83 307.479 203.615C302.501 207.922 298.303 218.431 290.352 219.677C281.547 221.059 286.786 215.078 290.646 211.665C300.18 203.236 310.403 196.093 313.185 182.494C314.703 175.077 315.078 166.811 314.462 159.204C313.868 151.892 312.55 151.983 309.542 157.627C303.016 169.87 293.767 179.574 282.007 187.031C279.754 188.462 274.666 192.004 271.731 189.425C269.075 187.093 271.534 183.419 272.601 180.565C274.954 174.258 278.015 168.499 281.062 162.515C285.074 154.631 291.739 144.119 292.838 135.31C293.552 129.59 289.15 126.668 285.403 122.67C281.02 117.992 277.159 113.088 273.951 107.525C271.715 103.651 269.456 97.9455 265.786 95.1822C260.089 90.891 260.993 95.6322 260.995 100.285C260.999 104.002 262.733 140.882 254.295 138.162C245.922 135.466 252.899 101.607 252.454 93.9798C251.861 83.8747 237.916 83.8622 229.738 81.22C225.425 79.8242 221.437 78.9231 217.417 76.8842C215.895 76.1123 214.365 73.2505 212.507 73.884C208.287 75.3195 223.097 91.8909 218.341 96.776C210.314 105.024 205.438 80.6674 203.819 76.1527C202.458 72.3556 200.824 67.9045 198.725 64.5136C195.481 59.2768 194.862 60.4025 189.219 61.4933C183.576 62.5842 170.498 61.1513 166.001 64.3682C161.653 67.48 166.506 70.5565 168.965 74.0191C171.295 77.2961 178.797 88.3761 171.413 89.7895C168.745 90.3003 160.097 81.7164 157.817 79.902C152.977 76.0473 154.016 76.9193 149.567 77.5871C144.397 78.3601 138.557 79.4315 133.535 80.6714C127.236 82.2277 125.686 83.1085 129.816 87.9208C134.662 93.559 142.367 97.4276 144.28 104.999C145.249 108.283 144.058 111.732 140.065 111.401C135.805 111.05 134.443 105.051 133.114 101.778C131.429 97.6336 128.451 87.9843 123.486 86.6589C120.382 85.8302 116.115 89.2566 113.31 90.3765C111.649 91.0384 104.326 92.4602 103.536 94.5991C102.67 96.948 110.36 102.984 112.331 105.775C117.36 112.893 122.593 121.591 123.961 129.696C124.347 142.745 110.979 125.616 109.013 121.476C106.832 116.885 100.672 93.6559 92.9551 95.1849C90.8537 95.6018 89.1026 100.451 87.2723 101.914C85.0299 103.706 82.3247 104.249 79.7471 105.245C75.9257 106.722 72.1015 108.198 68.4081 109.929C67.2668 110.464 64.1518 112.038 63.526 112.403C63.0547 112.68 62.1024 112.373 61.5285 112.722C57.6077 115.111 55.3557 120.503 51.6973 123.518C50.0557 124.87 43.0114 128.311 43.2902 130.484C43.5439 132.464 75.0053 137.104 79.6892 138.097C83.2511 138.851 98.4355 139.713 99.935 143.416C101.401 147.037 98.2248 147.947 95.1383 148.794C87.4787 150.895 78.1126 150.646 70.2083 151.269C64.6246 151.709 42.0157 150.888 38.5664 156.056C35.0055 161.392 38.2793 165.609 42.3963 166.796C46.9028 168.099 53.7236 166.815 58.2738 166.61C61.9798 166.443 85.8754 162.965 86.5437 168.463C87.2695 174.445 58.9002 176.602 56.0662 177.073C50.6504 177.971 41.7229 177.347 36.7999 179.599C32.3876 181.622 33.9179 182.058 34.6828 186.17C37.3235 200.381 39.0122 197.821 51.5285 195.922C56.3202 195.194 62.5334 193.662 66.7404 196.666C71.7676 200.249 71.1003 204.052 66.0741 206.219C62.6205 207.711 55.743 207.464 52.0231 207.637C47.6748 207.841 43.31 207.63 38.9779 207.251C37.7045 207.14 32.2302 205.666 30.9375 206.365C25.8589 209.109 35.7238 226.99 40.6309 228.133C43.0127 228.689 47.0963 227.429 49.5374 227.202C58.0694 226.398 66.6685 226.374 75.224 225.653C80.0419 225.248 102.834 220.956 97.7326 232.042C94.913 238.167 78.5726 239.781 73.0786 241.068C67.7923 242.307 62.5112 243.355 57.1524 244.224C52.146 245.036 49.3566 244.225 52.0731 249.947C54.8388 255.77 72.8848 274.484 79.1226 274.563C84.2408 274.625 82.5865 272.091 87.9467 276.041C89.9136 277.494 91.831 279.754 93.4844 281.547C99.8367 288.419 106.114 298.049 115.664 300.739C136.077 306.491 167.194 281.483 181.884 269.889C184.803 267.587 196.232 256.006 200.912 259.308C205.831 262.777 195.632 273.637 193.614 275.716C182.367 287.307 168.707 298.15 153.247 303.231C149.128 304.583 137.907 305.162 133.865 307.871C129.855 310.554 133.552 311.911 137.232 314.894C145.083 321.249 155.501 330.511 166.155 328.143C180.181 325.023 188.878 311.487 197.579 301.048C202.407 295.259 225.047 267.896 223.04 290.907C222.038 302.362 213.497 314.745 204.925 321.844C203.322 323.169 193.434 326.937 193.522 328.073C193.656 329.799 199.234 331.085 200.243 331.408C210.031 334.547 239.776 340.444 245.258 327.98C249.02 319.428 246.893 304.96 246.527 295.951C246.413 293.151 244.918 288.526 248.971 288.039C254.162 287.414 256.764 305.598 256.867 308.449C257.079 314.311 255.613 320.252 252.833 326.002C251.611 328.529 248.74 330.61 252.144 331.36C253.378 331.63 261.019 325.668 262.224 324.666C268.354 319.543 269.363 313.191 269.649 305.626C270.414 285.209 262.929 264.493 253.618 246.531C265.399 261.445 276.531 276.78 287.215 292.502C289.885 296.43 291.576 301.08 294.217 304.878C298.029 310.353 302.931 314.984 306.883 320.819C305.576 320.555 294.447 316.345 293.809 319.428C293.228 322.233 302.491 327.582 304.374 328.828C312.848 334.449 316.326 335.21 322.509 344.482C337.895 367.562 351.693 391.276 365.107 415.534C371.663 427.389 378.642 439.122 384.226 451.478C387.027 457.675 389.121 464.203 391.075 470.71C392.419 475.184 393.358 488.384 398.731 490.306C404.977 492.543 404.105 485.336 403.131 481.884C400.936 474.104 399.523 466.6 398.207 458.575C396.067 445.522 394.785 432.345 392.322 419.334C389.248 403.098 387.003 386.812 384.762 370.448C383.307 359.827 382.217 349.066 381.663 338.354C381.283 330.998 382.323 323.263 381.081 315.969C387.977 323.54 385.287 335.724 397.839 337.853C407.539 339.5 415.376 332.311 421.65 325.903C426.766 320.678 434.162 312.747 435.782 305.378C437.714 296.584 429.632 302.212 423.887 303.591C420.179 304.483 409.734 309.196 407.12 305.508C403.463 300.347 418.795 295.624 421.82 294.096C428.473 290.737 435.893 286.589 441.237 281.232C443.347 279.114 453.618 254.869 444.625 257.413C443.485 257.735 441.611 261.081 440.603 262.223C435.932 267.52 430.756 272.204 425.236 276.595C419.219 281.378 405.996 292.726 397.108 289.109C401.928 278.236 418.042 273.911 427.168 267.371C433.032 263.17 438.221 258.403 442.07 252.231C443.984 249.16 448.932 240.518 447.325 236.894Z" fill="#02362C"/>
</svg>
