<svg width="19" height="11" viewBox="0 0 19 11" fill="none" xmlns="http://www.w3.org/2000/svg">
<path d="M17.988 0.783971C17.6757 0.473552 17.2533 0.299316 16.813 0.299316C16.3726 0.299316 15.9502 0.473552 15.638 0.783971L9.65462 6.68397L3.75462 0.783971C3.44235 0.473552 3.01993 0.299316 2.57962 0.299316C2.13931 0.299316 1.71689 0.473552 1.40462 0.783971C1.2484 0.938909 1.12441 1.12324 1.0398 1.32634C0.955184 1.52944 0.911621 1.74728 0.911621 1.9673C0.911621 2.18732 0.955184 2.40517 1.0398 2.60827C1.12441 2.81136 1.2484 2.9957 1.40462 3.15064L8.47128 10.2173C8.62622 10.3735 8.81056 10.4975 9.01366 10.5821C9.21676 10.6667 9.4346 10.7103 9.65462 10.7103C9.87464 10.7103 10.0925 10.6667 10.2956 10.5821C10.4987 10.4975 10.683 10.3735 10.838 10.2173L17.988 3.15064C18.1442 2.9957 18.2682 2.81136 18.3528 2.60827C18.4374 2.40517 18.4809 2.18732 18.4809 1.9673C18.4809 1.74728 18.4374 1.52944 18.3528 1.32634C18.2682 1.12324 18.1442 0.938909 17.988 0.783971Z" fill="#333333"/>
</svg>
